{
  "accessors": [
    {
      "bufferView": 2,
      "componentType": 5126,
      "count": 2504,
      "max": [
        0.70463001728057861,
        0.028893399983644485,
        0.70827901363372803
      ],
      "min": [
        -0.70463001728057861,
        -0.095462098717689514,
        -0.28290098905563354
      ],
      "type": "VEC3"
    },
    {
      "bufferView": 2,
      "byteOffset": 30048,
      "componentType": 5126,
      "count": 2504,
      "max": [
        0.99703925848007202,
        1,
        0.99080175161361694
      ],
      "min": [
        -0.99703925848007202,
        -1,
        -0.99268853664398193
      ],
      "type": "VEC3"
    },
    {
      "bufferView": 3,
      "componentType": 5126,
      "count": 2504,
      "max": [
        1,
        0.579917311668396,
        1,
        1
      ],
      "min": [
        -0.99960601329803467,
        -0.58047878742218018,
        -1,
        1
      ],
      "type": "VEC4"
    },
    {
      "bufferView": 1,
      "componentType": 5126,
      "count": 2504,
      "max": [
        0.9965360164642334,
        0.99572300910949707
      ],
      "min": [
        0.0041344701312482357,
        0.012775500304996967
      ],
      "type": "VEC2"
    },
    {
      "bufferView": 0,
      "componentType": 5125,
      "count": 11652,
      "max": [
        2503
      ],
      "min": [
        0
      ],
      "type": "SCALAR"
    },
    {
      "bufferView": 2,
      "byteOffset": 60096,
      "componentType": 5126,
      "count": 3782,
      "max": [
        1,
        0.095462098717689514,
        0.99948698282241821
      ],
      "min": [
        -1,
        -0.06043040007352829,
        -0.99948698282241821
      ],
      "type": "VEC3"
    },
    {
      "bufferView": 2,
      "byteOffset": 105480,
      "componentType": 5126,
      "count": 3782,
      "max": [
        0.99999088048934937,
        0.99999254941940308,
        1
      ],
      "min": [
        -0.99999088048934937,
        -1,
        -1
      ],
      "type": "VEC3"
    },
    {
      "bufferView": 3,
      "byteOffset": 40064,
      "componentType": 5126,
      "count": 3782,
      "max": [
        1,
        0.92818492650985718,
        0.99996078014373779,
        1
      ],
      "min": [
        -1,
        -0.92817330360412598,
        -0.99996143579483032,
        -1
      ],
      "type": "VEC4"
    },
    {
      "bufferView": 1,
      "byteOffset": 20032,
      "componentType": 5126,
      "count": 3782,
      "max": [
        0.99990898370742798,
        0.46081700921058655
      ],
      "min": [
        9.11919996724464e-05,
        9.11919996724464e-05
      ],
      "type": "VEC2"
    },
    {
      "bufferView": 0,
      "byteOffset": 46608,
      "componentType": 5125,
      "count": 21564,
      "max": [
        3781
      ],
      "min": [
        0
      ],
      "type": "SCALAR"
    }
  ],
  "asset": {
    "extras": {
      "author": "rian_rueger3D (https://sketchfab.com/rian_rueger)",
      "license": "CC-BY-NC-4.0 (http://creativecommons.org/licenses/by-nc/4.0/)",
      "source": "https://sketchfab.com/models/b1339e4776284c2b933b01628cb5f5c5",
      "title": "The ADAM LZ Steering Wheel"
    },
    "generator": "Sketchfab-3.19.5",
    "version": "2.0"
  },
  "bufferViews": [
    {
      "buffer": 0,
      "byteLength": 132864,
      "byteOffset": 0,
      "name": "floatBufferViews",
      "target": 34963
    },
    {
      "buffer": 0,
      "byteLength": 50288,
      "byteOffset": 132864,
      "byteStride": 8,
      "name": "floatBufferViews",
      "target": 34962
    },
    {
      "buffer": 0,
      "byteLength": 150864,
      "byteOffset": 183152,
      "byteStride": 12,
      "name": "floatBufferViews",
      "target": 34962
    },
    {
      "buffer": 0,
      "byteLength": 100576,
      "byteOffset": 334016,
      "byteStride": 16,
      "name": "floatBufferViews",
      "target": 34962
    }
  ],
  "buffers": [
    {
      "byteLength": 434592,
      "uri": "scene.bin"
    }
  ],
  "images": [
    {
      "uri": "AdamLzWheel_baseColor.jpeg"
    },
    {
      "uri": "AdamLzWheel_normal.jpeg"
    },
    {
      "uri": "AdamLzWheel_metallicRoughness.png"
    }
  ],
  "materials": [
    {
      "doubleSided": true,
      "name": "AdamLzWheel",
      "normalTexture": {
        "index": 1,
        "scale": 1,
        "texCoord": 0
      },
      "occlusionTexture": {
        "index": 2,
        "strength": 1,
        "texCoord": 0
      },
      "pbrMetallicRoughness": {
        "baseColorFactor": [
          1,
          1,
          1,
          1
        ],
        "baseColorTexture": {
          "index": 0,
          "texCoord": 0
        },
        "metallicFactor": 1,
        "metallicRoughnessTexture": {
          "index": 2,
          "texCoord": 0
        },
        "roughnessFactor": 1
      }
    }
  ],
  "meshes": [
    {
      "name": "defaultMaterial",
      "primitives": [
        {
          "attributes": {
            "NORMAL": 1,
            "POSITION": 0,
            "TANGENT": 2,
            "TEXCOORD_0": 3
          },
          "indices": 4,
          "material": 0,
          "mode": 4
        }
      ]
    },
    {
      "name": "defaultMaterial",
      "primitives": [
        {
          "attributes": {
            "NORMAL": 6,
            "POSITION": 5,
            "TANGENT": 7,
            "TEXCOORD_0": 8
          },
          "indices": 9,
          "material": 0,
          "mode": 4
        }
      ]
    }
  ],
  "nodes": [
    {
      "children": [
        1
      ],
      "name": "RootNode (gltf orientation matrix)",
      "rotation": [
        -0.70710678118654746,
        -0,
        -0,
        0.70710678118654757
      ]
    },
    {
      "children": [
        2
      ],
      "matrix": [
        1,
        0,
        0,
        0,
        0,
        0.62186527252197266,
        0.78312426805496216,
        0,
        0,
        -0.78312426805496216,
        0.62186527252197266,
        0,
        0,
        0.013717175461351871,
        0.0066232793033123016,
        1
      ],
      "name": "RootNode (model correction matrix)"
    },
    {
      "children": [
        3,
        5
      ],
      "matrix": [
        1,
        0,
        0,
        0,
        0,
        -4.3711390063094768e-08,
        0.999999999999999,
        0,
        0,
        -0.999999999999999,
        -4.3711390063094768e-08,
        0,
        0,
        0,
        0,
        1
      ],
      "name": "Collada visual scene group"
    },
    {
      "children": [
        4
      ],
      "name": "CenterHub_LP"
    },
    {
      "mesh": 0,
      "name": "defaultMaterial"
    },
    {
      "children": [
        6
      ],
      "name": "Wheel_LP"
    },
    {
      "mesh": 1,
      "name": "defaultMaterial"
    }
  ],
  "samplers": [
    {
      "magFilter": 9729,
      "minFilter": 9987,
      "wrapS": 10497,
      "wrapT": 10497
    }
  ],
  "scene": 0,
  "scenes": [
    {
      "name": "OSG_Scene",
      "nodes": [
        0
      ]
    }
  ],
  "textures": [
    {
      "sampler": 0,
      "source": 0
    },
    {
      "sampler": 0,
      "source": 1
    },
    {
      "sampler": 0,
      "source": 2
    }
  ]
}

